<?xml version="1.0" encoding="UTF-8"?>
<!DOCTYPE svg PUBLIC "-//W3C//DTD SVG 1.1//EN" "http://www.w3.org/Graphics/SVG/1.1/DTD/svg11.dtd">
<svg xmlns="http://www.w3.org/2000/svg" version="1.1" width="2347px" height="2363px" style="shape-rendering:geometricPrecision; text-rendering:geometricPrecision; image-rendering:optimizeQuality; fill-rule:evenodd; clip-rule:evenodd" xmlns:xlink="http://www.w3.org/1999/xlink">
<g><path style="opacity:0.996" fill="currentColor" d="M 1177.5,-0.5 C 1190.83,-0.5 1204.17,-0.5 1217.5,-0.5C 1284.97,4.59249 1344.3,29.0925 1395.5,73C 1684,361.5 1972.5,650 2261,938.5C 2314.07,999.847 2342.57,1071.18 2346.5,1152.5C 2346.5,1161.5 2346.5,1170.5 2346.5,1179.5C 2341.61,1265.91 2310.78,1341.58 2254,1406.5C 2120.17,1540.33 1986.33,1674.17 1852.5,1808C 1833.58,1820.91 1814.91,1820.58 1796.5,1807C 1625.33,1637.83 1454.17,1468.67 1283,1299.5C 1275.46,1287.43 1273.46,1274.43 1277,1260.5C 1278.89,1255.06 1281.55,1250.06 1285,1245.5C 1340.17,1190.33 1395.33,1135.17 1450.5,1080C 1468.89,1067.39 1487.22,1067.39 1505.5,1080C 1605.17,1177.67 1704.83,1275.33 1804.5,1373C 1823.03,1385.88 1841.36,1385.55 1859.5,1372C 1915.67,1315.83 1971.83,1259.67 2028,1203.5C 2040.75,1186.49 2041.75,1168.82 2031,1150.5C 1687.64,807.473 1344.64,464.14 1002,120.5C 991.507,102.409 992.173,84.7421 1004,67.5C 1023.39,50.8734 1044.89,37.3734 1068.5,27C 1103.41,11.6905 1139.74,2.52382 1177.5,-0.5 Z"/></g>
<g><path style="opacity:0.997" fill="currentColor" d="M 1174.5,2362.5 C 1157.83,2362.5 1141.17,2362.5 1124.5,2362.5C 1042.96,2355.56 972.296,2324.39 912.5,2269C 635.64,1992.47 359.14,1715.64 83,1438.5C 33.634,1380.6 5.80071,1313.6 -0.5,1237.5C -0.5,1220.83 -0.5,1204.17 -0.5,1187.5C 6.58702,1105.7 37.087,1034.03 91,972.5C 338.5,725 586,477.5 833.5,230C 846.005,221.48 859.672,219.147 874.5,223C 879.28,224.556 883.613,226.889 887.5,230C 941,283.5 994.5,337 1048,390.5C 1058.53,407.053 1059.2,424.053 1050,441.5C 806.027,686.473 561.694,931.14 317,1175.5C 303.007,1194.21 303.007,1212.88 317,1231.5C 372.167,1286.67 427.333,1341.83 482.5,1397C 499.989,1410.22 517.989,1410.88 536.5,1399C 631.527,1304.31 726.194,1209.31 820.5,1114C 839.431,1101.03 858.098,1101.36 876.5,1115C 928.694,1167.53 981.194,1219.69 1034,1271.5C 1044.02,1283.91 1047.02,1297.91 1043,1313.5C 1041.19,1318.45 1038.86,1323.11 1036,1327.5C 941.667,1422.5 847.333,1517.5 753,1612.5C 738.74,1631.45 739.073,1650.11 754,1668.5C 879.5,1794 1005,1919.5 1130.5,2045C 1149.11,2058.95 1167.78,2058.95 1186.5,2045C 1280.83,1950.67 1375.17,1856.33 1469.5,1762C 1480.66,1754.13 1492.99,1751.46 1506.5,1754C 1512.27,1755.37 1517.6,1757.7 1522.5,1761C 1576.67,1815.17 1630.83,1869.33 1685,1923.5C 1696.46,1941.35 1696.13,1959.02 1684,1976.5C 1583.81,2077.03 1483.31,2177.19 1382.5,2277C 1322.27,2327.25 1252.94,2355.75 1174.5,2362.5 Z"/></g>
<g><path style="opacity:0.994" fill="currentColor" d="M 1175.5,837.5 C 1228.16,837.518 1274.49,854.351 1314.5,888C 1332.33,905.833 1350.17,923.667 1368,941.5C 1378.95,958.629 1379.28,975.962 1369,993.5C 1312.17,1050.33 1255.33,1107.17 1198.5,1164C 1184.52,1172.35 1169.86,1173.69 1154.5,1168C 1150.66,1165.92 1147,1163.58 1143.5,1161C 1091,1108.5 1038.5,1056 986,1003.5C 972.782,985.324 972.115,966.658 984,947.5C 1003.17,928.333 1022.33,909.167 1041.5,890C 1079.9,856.696 1124.57,839.196 1175.5,837.5 Z"/></g>
</svg>
